<?xml version="1.0" standalone="no"?><!DOCTYPE svg PUBLIC "-//W3C//DTD SVG 1.1//EN" "http://www.w3.org/Graphics/SVG/1.1/DTD/svg11.dtd"><svg t="1745044223833" class="icon" viewBox="0 0 1024 1024" version="1.1" xmlns="http://www.w3.org/2000/svg" p-id="35439" xmlns:xlink="http://www.w3.org/1999/xlink" width="16" height="16"><path d="M731.192 498.601c8.3-18.831 30.347-23.66 45.696-14.48 4.639 2.525 7.982 5.674 9.104 8.193l0.153 0.338a33.002 33.002 0 0 1 3.38 5.949l71.111 161.367 127.96 287.401a32 32 0 0 1-55.655 31.078l-2.816-5.048-48.487-108.892H639.647l-48.2 108.252c-7.347 16.502-26.388 24.049-42.532 16.86-14.351-6.39-21.586-22.272-17.853-37.31l1.92-5.58 72.54-162.934z m29.45 94.131l-0.67 1.516L667.965 800.9h185.17l-18.048-40.96-74.444-167.209zM304.257 36.311a31.903 31.903 0 0 1 38 14.848l2.305 5.253 24.775 74.153a31.764 31.764 0 0 1-20.152 40.202 31.903 31.903 0 0 1-38-14.848l-2.294-5.253-24.781-74.153a31.764 31.764 0 0 1 20.147-40.202z" p-id="35440" fill="#ffffff" class="custom-cursor-on-hover"></path><path d="M611.686 158.275c17.593 0 31.857 14.228 31.857 31.78 0 15.6-11.27 28.574-26.132 31.267l-5.725 0.512H66.54c-17.598 0-31.862-14.233-31.862-31.78 0-15.605 11.274-28.58 26.132-31.267l5.73-0.512h545.146z m-454.784 124.81c16.917-4.823 34.55 4.95 39.389 21.826l3.287 10.394 5.202 14.484a633.316 633.316 0 0 0 7.168 18.054c13.68 32.947 30.74 65.889 51.281 96.445 22.846 33.987 48.59 62.828 77.18 84.997 27.217 21.11 60.666 42.532 98.913 63.847 30.105 16.778 61.92 32.803 94.167 47.795l43.08 19.328 27.402 11.581 19.113 7.619a31.754 31.754 0 0 1 18.35 41.047c-6.298 16.394-24.715 24.591-41.15 18.309l-30.382-12.293-29.809-12.81c-44.881-19.774-89.789-41.652-131.85-65.086-40.847-22.763-76.902-45.86-106.946-69.156-34.386-26.67-64.584-60.503-90.983-99.778-23.091-34.34-42.045-70.938-57.236-107.53l-4.306-10.625-7.04-18.647-4.977-14.75a241.92 241.92 0 0 1-1.73-5.76c-4.839-16.876 4.956-34.468 21.877-39.291z" p-id="35441" fill="#ffffff"></path><path d="M513.638 158.285l5.71 0.717c17.192 3.737 28.093 20.664 24.35 37.81l-2.893 12.094-1.5 5.868c-3.6 13.824-7.992 29.174-13.215 45.686-14.93 47.206-33.572 94.443-56.269 138.757-25.984 50.734-55.715 94.448-89.702 129.039-29.952 30.495-65.992 60.795-106.839 90.67-42.112 30.797-87.086 59.556-132.045 85.555l-15.35 8.76-28.154 15.468-16.881 8.817c-15.718 7.885-34.867 1.566-42.773-14.116a31.744 31.744 0 0 1 14.147-42.67l11.694-6.042 15.59-8.407 19.067-10.665c3.441-1.956 7.015-4.004 10.706-6.144 43.12-24.924 86.221-52.49 126.32-81.817 38.247-27.97 71.717-56.105 99.011-83.892 28.99-29.511 55.204-68.055 78.47-113.474 20.93-40.868 38.307-84.9 52.244-128.963l6.41-21.074 6.892-25.149 2.81-11.827c3.329-15.242 17.107-25.529 32.206-25.001z" p-id="35442" fill="#ffffff"></path></svg>