<svg width="480" height="480" viewBox="0 0 480 480" fill="none" xmlns="http://www.w3.org/2000/svg">
<path d="M173 124C189.569 124 203 137.431 203 154V235H143V154C143 137.431 156.431 124 173 124Z" fill="#57B9FF"/>
<path d="M203 296H202.981C202.454 312.106 189.234 325 173 325C156.766 325 143.546 312.106 143.019 296H143V270H203V296Z" fill="#09478B"/>
<path d="M203 270H202.947C202.034 278.923 188.976 286 173 286C157.024 286 143.966 278.923 143.053 270H143V204C143 213.389 156.431 221 173 221C189.569 221 203 213.389 203 204V270Z" fill="#4485F5"/>
<path d="M303 356C286.431 356 273 342.569 273 326L273 210L333 210L333 326C333 342.569 319.569 356 303 356Z" fill="url(#paint0_linear_3_2)"/>
<rect x="189" y="189" width="14" height="27" fill="#57B9FF"/>
<path d="M303 155C319.234 155 332.454 167.894 332.981 184H333V240C333 230.611 319.569 223 303 223C286.431 223 273 230.611 273 240V184H273.019C273.546 167.894 286.766 155 303 155Z" fill="#57B9FF"/>
<rect x="273" y="227.879" width="8.55069" height="14.2887" fill="#4580F6"/>
<path d="M194.125 216.07L287.002 159.617L281.777 228.037L195.551 280.207L194.125 216.07Z" fill="#57B9FF"/>
<path d="M273 233.348L195.551 280.207L194.125 216.07L273 168.128V233.348Z" fill="#4485F5"/>
<defs>
<linearGradient id="paint0_linear_3_2" x1="291.391" y1="233.823" x2="303" y2="356" gradientUnits="userSpaceOnUse">
<stop stop-color="#4485F5"/>
<stop offset="1" stop-color="#4175F4"/>
</linearGradient>
</defs>
</svg>
