<svg width="44" height="44" viewBox="120 120 230 250" fill="none" xmlns="http://www.w3.org/2000/svg">
<path d="M173.277 124C189.846 124 203.277 137.431 203.277 154V235H143.277V154C143.277 137.431 156.708 124 173.277 124Z" fill="#579AFF"/>
<path d="M203.277 296H203.258C202.731 312.106 189.511 325 173.277 325C157.043 325 143.823 312.106 143.296 296H143.277V270H203.277V296Z" fill="#1E286E"/>
<path d="M203.277 270H203.224C202.311 278.923 189.253 286 173.277 286C157.301 286 144.243 278.923 143.33 270H143.277V204C143.277 213.389 156.708 221 173.277 221C189.846 221 203.277 213.389 203.277 204V270Z" fill="#4E66ED"/>
<path d="M303.277 356C286.708 356 273.277 342.569 273.277 326L273.277 210L333.277 210L333.277 326C333.277 342.569 319.845 356 303.277 356Z" fill="url(#paint0_linear_3_33)"/>
<rect x="189.277" y="189" width="14" height="27" fill="#579AFF"/>
<path d="M303.277 155C319.511 155 332.731 167.894 333.258 184H333.277V240C333.277 230.611 319.845 223 303.277 223C286.708 223 273.277 230.611 273.277 240V184H273.295C273.823 167.894 287.043 155 303.277 155Z" fill="#579AFF"/>
<rect x="273.277" y="227.879" width="8.55069" height="14.2887" fill="#4E66ED"/>
<path d="M194.402 216.07L287.279 159.617L282.054 228.037L195.828 280.207L194.402 216.07Z" fill="#579AFF"/>
<path d="M273.277 233.348L195.828 280.207L194.402 216.07L273.277 168.128V233.348Z" fill="#4E66ED"/>
<defs>
<linearGradient id="paint0_linear_3_33" x1="291.667" y1="233.823" x2="303.277" y2="356" gradientUnits="userSpaceOnUse">
<stop stop-color="#4E66ED"/>
<stop offset="1" stop-color="#4861ED"/>
</linearGradient>
</defs>
</svg>
