<svg width="66" height="66" viewBox="0 0 480 480" fill="none" xmlns="http://www.w3.org/2000/svg">
<path d="M99.7381 392V345.24H110.798V363.09H130.048V345.24H141.108V392H130.048V372.82H110.798V392H99.7381ZM164.888 392.84C161.154 392.84 157.841 392.117 154.948 390.67C152.101 389.177 149.861 387.053 148.228 384.3C146.641 381.547 145.848 378.257 145.848 374.43C145.848 370.743 146.688 367.547 148.368 364.84C150.094 362.133 152.358 360.033 155.158 358.54C158.004 357.047 161.108 356.3 164.468 356.3C168.294 356.3 171.561 357.21 174.268 359.03C177.021 360.803 179.098 363.277 180.498 366.45C181.898 369.577 182.481 373.193 182.248 377.3H156.558C156.744 379.727 157.631 381.547 159.218 382.76C160.851 383.973 162.648 384.58 164.608 384.58C166.241 384.58 167.641 384.347 168.808 383.88C170.021 383.367 170.954 382.737 171.608 381.99L180.078 385.07C178.258 387.73 175.971 389.69 173.218 390.95C170.511 392.21 167.734 392.84 164.888 392.84ZM156.558 371H172.378C172.331 368.76 171.561 367.08 170.068 365.96C168.574 364.793 166.801 364.21 164.748 364.21C162.741 364.21 160.944 364.747 159.358 365.82C157.818 366.893 156.884 368.62 156.558 371ZM183.816 392L196.696 373.87L184.866 357.28H196.486L202.506 365.75L208.456 357.28H220.076L208.246 373.87L221.126 392H209.506L202.506 381.99L195.436 392H183.816ZM241.23 392.84C238.01 392.84 235 392.187 232.2 390.88C229.4 389.573 227.137 387.567 225.41 384.86C223.684 382.107 222.82 378.653 222.82 374.5C222.82 370.3 223.684 366.87 225.41 364.21C227.137 361.503 229.4 359.52 232.2 358.26C235 356.953 238.01 356.3 241.23 356.3C244.404 356.3 247.39 356.953 250.19 358.26C252.99 359.52 255.254 361.503 256.98 364.21C258.707 366.87 259.57 370.3 259.57 374.5C259.57 378.653 258.707 382.107 256.98 384.86C255.254 387.567 252.99 389.573 250.19 390.88C247.39 392.187 244.404 392.84 241.23 392.84ZM241.23 384.58C243.377 384.58 245.15 383.81 246.55 382.27C247.997 380.73 248.72 378.14 248.72 374.5C248.72 370.813 247.974 368.247 246.48 366.8C245.034 365.307 243.284 364.56 241.23 364.56C239.13 364.56 237.334 365.307 235.84 366.8C234.394 368.247 233.67 370.813 233.67 374.5C233.67 378.14 234.394 380.73 235.84 382.27C237.287 383.81 239.084 384.58 241.23 384.58Z" fill="#161616"/>
<path d="M286.817 393.926V344.568H302.283C306.329 344.568 309.881 344.963 312.939 345.752C316.047 346.541 318.465 348.021 320.191 350.192C321.967 352.313 322.855 355.421 322.855 359.516C322.855 363.561 321.967 366.669 320.191 368.84C318.465 370.961 316.047 372.417 312.939 373.206C309.881 373.946 306.329 374.316 302.283 374.316H293.773V393.926H286.817ZM293.773 368.322H302.875C305.293 368.322 307.463 368.149 309.387 367.804C311.311 367.459 312.841 366.669 313.975 365.436C315.159 364.153 315.751 362.18 315.751 359.516C315.751 356.803 315.159 354.805 313.975 353.522C312.841 352.239 311.311 351.401 309.387 351.006C307.463 350.611 305.293 350.414 302.875 350.414H293.773V368.322ZM328.597 394V357.296H333.111L335.109 364.104C336.391 361.884 338.118 360.108 340.289 358.776C342.509 357.395 345.148 356.704 348.207 356.704V363.142C347.861 363.142 347.491 363.142 347.097 363.142C346.751 363.142 346.406 363.167 346.061 363.216C341.867 363.561 338.932 365.017 337.255 367.582C335.627 370.147 334.813 373.699 334.813 378.238V394H328.597ZM366.769 394.888C364.648 394.888 362.551 394.518 360.479 393.778C358.407 393.038 356.508 391.903 354.781 390.374C353.104 388.795 351.747 386.797 350.711 384.38C349.675 381.963 349.157 379.101 349.157 375.796C349.157 372.491 349.675 369.629 350.711 367.212C351.747 364.795 353.104 362.821 354.781 361.292C356.508 359.713 358.407 358.554 360.479 357.814C362.551 357.074 364.648 356.704 366.769 356.704C368.891 356.704 370.987 357.074 373.059 357.814C375.181 358.554 377.08 359.713 378.757 361.292C380.484 362.821 381.841 364.795 382.827 367.212C383.863 369.629 384.381 372.491 384.381 375.796C384.381 379.101 383.863 381.963 382.827 384.38C381.841 386.797 380.484 388.795 378.757 390.374C377.08 391.903 375.181 393.038 373.059 393.778C370.987 394.518 368.891 394.888 366.769 394.888ZM366.769 389.412C368.545 389.412 370.272 388.943 371.949 388.006C373.627 387.019 375.008 385.539 376.093 383.566C377.179 381.543 377.721 378.953 377.721 375.796C377.721 372.639 377.179 370.073 376.093 368.1C375.008 366.077 373.627 364.597 371.949 363.66C370.272 362.673 368.545 362.18 366.769 362.18C365.043 362.18 363.316 362.673 361.589 363.66C359.912 364.597 358.531 366.077 357.445 368.1C356.36 370.073 355.817 372.639 355.817 375.796C355.817 378.953 356.36 381.543 357.445 383.566C358.531 385.539 359.912 387.019 361.589 388.006C363.316 388.943 365.043 389.412 366.769 389.412Z" fill="#676767"/>
<path d="M271.54 392.56C269.06 392.56 267.3 390.6 267.3 388.12C267.3 385.64 269.06 383.72 271.54 383.72C273.98 383.72 275.78 385.64 275.78 388.12C275.78 390.6 273.98 392.56 271.54 392.56Z" fill="#777777"/>
<path d="M173 82C189.569 82 203 95.4315 203 112V193H143V112C143 95.4315 156.431 82 173 82Z" fill="#57B9FF"/>
<path d="M203 254H202.981C202.454 270.106 189.234 283 173 283C156.766 283 143.546 270.106 143.019 254H143V228H203V254Z" fill="#09478B"/>
<path d="M203 228H202.947C202.034 236.923 188.976 244 173 244C157.024 244 143.966 236.923 143.053 228H143V162C143 171.389 156.431 179 173 179C189.569 179 203 171.389 203 162V228Z" fill="#4485F5"/>
<path d="M303 314C286.431 314 273 300.569 273 284L273 168L333 168L333 284C333 300.569 319.569 314 303 314Z" fill="url(#paint0_linear_1_5)"/>
<rect x="189" y="147" width="14" height="27" fill="#57B9FF"/>
<path d="M303 113C319.234 113 332.454 125.894 332.981 142H333V198C333 188.611 319.569 181 303 181C286.431 181 273 188.611 273 198V142H273.019C273.546 125.894 286.766 113 303 113Z" fill="#57B9FF"/>
<rect x="273" y="185.879" width="8.55069" height="14.2887" fill="#4580F6"/>
<path d="M194.125 174.07L287.002 117.617L281.777 186.037L195.551 238.207L194.125 174.07Z" fill="#57B9FF"/>
<path d="M273 191.348L195.551 238.207L194.125 174.07L273 126.128V191.348Z" fill="#4485F5"/>
<defs>
<linearGradient id="paint0_linear_1_5" x1="291.391" y1="191.823" x2="303" y2="314" gradientUnits="userSpaceOnUse">
<stop stop-color="#4485F5"/>
<stop offset="1" stop-color="#4175F4"/>
</linearGradient>
</defs>
</svg>
