<svg width="481" height="480" viewBox="0 0 481 480" fill="none" xmlns="http://www.w3.org/2000/svg">
<path d="M100.015 392V345.24H111.075V363.09H130.325V345.24H141.385V392H130.325V372.82H111.075V392H100.015ZM165.165 392.84C161.431 392.84 158.118 392.117 155.225 390.67C152.378 389.177 150.138 387.053 148.505 384.3C146.918 381.547 146.125 378.257 146.125 374.43C146.125 370.743 146.965 367.547 148.645 364.84C150.371 362.133 152.635 360.033 155.435 358.54C158.281 357.047 161.385 356.3 164.745 356.3C168.571 356.3 171.838 357.21 174.545 359.03C177.298 360.803 179.375 363.277 180.775 366.45C182.175 369.577 182.758 373.193 182.525 377.3H156.835C157.021 379.727 157.908 381.547 159.495 382.76C161.128 383.973 162.925 384.58 164.885 384.58C166.518 384.58 167.918 384.347 169.085 383.88C170.298 383.367 171.231 382.737 171.885 381.99L180.355 385.07C178.535 387.73 176.248 389.69 173.495 390.95C170.788 392.21 168.011 392.84 165.165 392.84ZM156.835 371H172.655C172.608 368.76 171.838 367.08 170.345 365.96C168.851 364.793 167.078 364.21 165.025 364.21C163.018 364.21 161.221 364.747 159.635 365.82C158.095 366.893 157.161 368.62 156.835 371ZM184.093 392L196.973 373.87L185.143 357.28H196.763L202.783 365.75L208.733 357.28H220.353L208.523 373.87L221.403 392H209.783L202.783 381.99L195.713 392H184.093ZM241.507 392.84C238.287 392.84 235.277 392.187 232.477 390.88C229.677 389.573 227.414 387.567 225.687 384.86C223.961 382.107 223.097 378.653 223.097 374.5C223.097 370.3 223.961 366.87 225.687 364.21C227.414 361.503 229.677 359.52 232.477 358.26C235.277 356.953 238.287 356.3 241.507 356.3C244.681 356.3 247.667 356.953 250.467 358.26C253.267 359.52 255.531 361.503 257.257 364.21C258.984 366.87 259.847 370.3 259.847 374.5C259.847 378.653 258.984 382.107 257.257 384.86C255.531 387.567 253.267 389.573 250.467 390.88C247.667 392.187 244.681 392.84 241.507 392.84ZM241.507 384.58C243.654 384.58 245.427 383.81 246.827 382.27C248.274 380.73 248.997 378.14 248.997 374.5C248.997 370.813 248.251 368.247 246.757 366.8C245.311 365.307 243.561 364.56 241.507 364.56C239.407 364.56 237.611 365.307 236.117 366.8C234.671 368.247 233.947 370.813 233.947 374.5C233.947 378.14 234.671 380.73 236.117 382.27C237.564 383.81 239.361 384.58 241.507 384.58Z" fill="#161616"/>
<path d="M287.094 393.926V344.568H302.56C306.606 344.568 310.158 344.963 313.216 345.752C316.324 346.541 318.742 348.021 320.468 350.192C322.244 352.313 323.132 355.421 323.132 359.516C323.132 363.561 322.244 366.669 320.468 368.84C318.742 370.961 316.324 372.417 313.216 373.206C310.158 373.946 306.606 374.316 302.56 374.316H294.05V393.926H287.094ZM294.05 368.322H303.152C305.57 368.322 307.74 368.149 309.664 367.804C311.588 367.459 313.118 366.669 314.252 365.436C315.436 364.153 316.028 362.18 316.028 359.516C316.028 356.803 315.436 354.805 314.252 353.522C313.118 352.239 311.588 351.401 309.664 351.006C307.74 350.611 305.57 350.414 303.152 350.414H294.05V368.322ZM328.874 394V357.296H333.388L335.386 364.104C336.668 361.884 338.395 360.108 340.566 358.776C342.786 357.395 345.425 356.704 348.484 356.704V363.142C348.138 363.142 347.768 363.142 347.374 363.142C347.028 363.142 346.683 363.167 346.338 363.216C342.144 363.561 339.209 365.017 337.532 367.582C335.904 370.147 335.09 373.699 335.09 378.238V394H328.874ZM367.046 394.888C364.925 394.888 362.828 394.518 360.756 393.778C358.684 393.038 356.785 391.903 355.058 390.374C353.381 388.795 352.024 386.797 350.988 384.38C349.952 381.963 349.434 379.101 349.434 375.796C349.434 372.491 349.952 369.629 350.988 367.212C352.024 364.795 353.381 362.821 355.058 361.292C356.785 359.713 358.684 358.554 360.756 357.814C362.828 357.074 364.925 356.704 367.046 356.704C369.167 356.704 371.264 357.074 373.336 357.814C375.457 358.554 377.357 359.713 379.034 361.292C380.761 362.821 382.117 364.795 383.104 367.212C384.14 369.629 384.658 372.491 384.658 375.796C384.658 379.101 384.14 381.963 383.104 384.38C382.117 386.797 380.761 388.795 379.034 390.374C377.357 391.903 375.457 393.038 373.336 393.778C371.264 394.518 369.167 394.888 367.046 394.888ZM367.046 389.412C368.822 389.412 370.549 388.943 372.226 388.006C373.903 387.019 375.285 385.539 376.37 383.566C377.455 381.543 377.998 378.953 377.998 375.796C377.998 372.639 377.455 370.073 376.37 368.1C375.285 366.077 373.903 364.597 372.226 363.66C370.549 362.673 368.822 362.18 367.046 362.18C365.319 362.18 363.593 362.673 361.866 363.66C360.189 364.597 358.807 366.077 357.722 368.1C356.637 370.073 356.094 372.639 356.094 375.796C356.094 378.953 356.637 381.543 357.722 383.566C358.807 385.539 360.189 387.019 361.866 388.006C363.593 388.943 365.319 389.412 367.046 389.412Z" fill="#676767"/>
<path d="M271.817 392.56C269.337 392.56 267.577 390.6 267.577 388.12C267.577 385.64 269.337 383.72 271.817 383.72C274.257 383.72 276.057 385.64 276.057 388.12C276.057 390.6 274.257 392.56 271.817 392.56Z" fill="#777777"/>
<path d="M173.277 82C189.846 82 203.277 95.4315 203.277 112V193H143.277V112C143.277 95.4315 156.708 82 173.277 82Z" fill="#579AFF"/>
<path d="M203.277 254H203.258C202.731 270.106 189.511 283 173.277 283C157.043 283 143.823 270.106 143.296 254H143.277V228H203.277V254Z" fill="#1E286E"/>
<path d="M203.277 228H203.224C202.311 236.923 189.253 244 173.277 244C157.301 244 144.243 236.923 143.33 228H143.277V162C143.277 171.389 156.708 179 173.277 179C189.846 179 203.277 171.389 203.277 162V228Z" fill="#4E66ED"/>
<path d="M303.277 314C286.708 314 273.277 300.569 273.277 284L273.277 168L333.277 168L333.277 284C333.277 300.569 319.846 314 303.277 314Z" fill="url(#paint0_linear_2_138)"/>
<rect x="189.277" y="147" width="14" height="27" fill="#579AFF"/>
<path d="M303.277 113C319.511 113 332.731 125.894 333.258 142H333.277V198C333.277 188.611 319.846 181 303.277 181C286.708 181 273.277 188.611 273.277 198V142H273.296C273.823 125.894 287.043 113 303.277 113Z" fill="#579AFF"/>
<rect x="273.277" y="185.879" width="8.55069" height="14.2887" fill="#4E66ED"/>
<path d="M194.402 174.07L287.279 117.617L282.054 186.037L195.828 238.207L194.402 174.07Z" fill="#579AFF"/>
<path d="M273.277 191.348L195.828 238.207L194.402 174.07L273.277 126.128V191.348Z" fill="#4E66ED"/>
<defs>
<linearGradient id="paint0_linear_2_138" x1="291.668" y1="191.823" x2="303.277" y2="314" gradientUnits="userSpaceOnUse">
<stop stop-color="#4E66ED"/>
<stop offset="1" stop-color="#4861ED"/>
</linearGradient>
</defs>
</svg>
