<svg width="640" height="240" viewBox="0 0 640 240" fill="none" xmlns="http://www.w3.org/2000/svg">
<path d="M174.625 158.791V79.3453H193.416V109.673H226.122V79.3453H244.913V158.791H226.122V126.204H193.416V158.791H174.625ZM285.316 160.219C278.973 160.219 273.343 158.99 268.427 156.532C263.591 153.994 259.785 150.387 257.01 145.709C254.314 141.031 252.966 135.441 252.966 128.94C252.966 122.676 254.394 117.245 257.248 112.646C260.182 108.047 264.027 104.479 268.784 101.942C273.621 99.4051 278.893 98.1365 284.602 98.1365C291.104 98.1365 296.654 99.6826 301.252 102.775C305.93 105.788 309.459 109.99 311.837 115.381C314.216 120.694 315.207 126.839 314.811 133.816H271.163C271.48 137.939 272.986 141.031 275.682 143.092C278.457 145.154 281.51 146.185 284.84 146.185C287.615 146.185 289.994 145.788 291.976 144.995C294.037 144.123 295.623 143.053 296.733 141.784L311.124 147.017C308.031 151.537 304.146 154.867 299.468 157.007C294.87 159.148 290.152 160.219 285.316 160.219ZM271.163 123.112H298.041C297.962 119.306 296.654 116.452 294.117 114.549C291.579 112.567 288.566 111.576 285.078 111.576C281.668 111.576 278.616 112.488 275.92 114.311C273.304 116.135 271.718 119.068 271.163 123.112ZM317.475 158.791L339.359 127.988L319.259 99.8015H339.002L349.23 114.192L359.339 99.8015H379.082L358.982 127.988L380.866 158.791H361.123L349.23 141.784L337.218 158.791H317.475ZM415.023 160.219C409.552 160.219 404.438 159.109 399.681 156.888C394.924 154.668 391.078 151.259 388.145 146.66C385.211 141.982 383.744 136.115 383.744 129.059C383.744 121.923 385.211 116.095 388.145 111.576C391.078 106.977 394.924 103.607 399.681 101.467C404.438 99.2465 409.552 98.1365 415.023 98.1365C420.415 98.1365 425.489 99.2465 430.246 101.467C435.004 103.607 438.849 106.977 441.783 111.576C444.716 116.095 446.183 121.923 446.183 129.059C446.183 136.115 444.716 141.982 441.783 146.66C438.849 151.259 435.004 154.668 430.246 156.888C425.489 159.109 420.415 160.219 415.023 160.219ZM415.023 146.185C418.67 146.185 421.683 144.876 424.062 142.26C426.52 139.643 427.749 135.243 427.749 129.059C427.749 122.795 426.48 118.434 423.943 115.976C421.485 113.439 418.512 112.17 415.023 112.17C411.455 112.17 408.403 113.439 405.865 115.976C403.407 118.434 402.179 122.795 402.179 129.059C402.179 135.243 403.407 139.643 405.865 142.26C408.323 144.876 411.376 146.185 415.023 146.185Z" fill="#161616"/>
<path d="M464.945 158.275V78.9482H489.801C496.303 78.9482 502.012 79.5825 506.927 80.8511C511.922 82.1197 515.808 84.4984 518.583 87.987C521.437 91.3964 522.864 96.3915 522.864 102.972C522.864 109.474 521.437 114.469 518.583 117.958C515.808 121.367 511.922 123.706 506.927 124.975C502.012 126.164 496.303 126.759 489.801 126.759H476.124V158.275H464.945ZM476.124 117.125H490.753C494.638 117.125 498.126 116.848 501.219 116.293C504.311 115.738 506.769 114.469 508.592 112.487C510.495 110.425 511.447 107.254 511.447 102.972C511.447 98.6115 510.495 95.4004 508.592 93.3389C506.769 91.2774 504.311 89.9296 501.219 89.2953C498.126 88.661 494.638 88.3438 490.753 88.3438H476.124V117.125ZM532.092 158.394V99.4044H539.346L542.557 110.346C544.619 106.778 547.394 103.924 550.883 101.783C554.451 99.563 558.692 98.453 563.608 98.453V108.8C563.053 108.8 562.459 108.8 561.824 108.8C561.269 108.8 560.714 108.84 560.159 108.919C553.42 109.474 548.702 111.813 546.006 115.936C543.39 120.059 542.082 125.767 542.082 133.062V158.394H532.092ZM593.441 159.821C590.032 159.821 586.662 159.227 583.332 158.037C580.002 156.848 576.95 155.025 574.175 152.567C571.479 150.029 569.298 146.818 567.633 142.933C565.968 139.048 565.136 134.449 565.136 129.137C565.136 123.825 565.968 119.226 567.633 115.341C569.298 111.456 571.479 108.285 574.175 105.827C576.95 103.289 580.002 101.426 583.332 100.237C586.662 99.0476 590.032 98.453 593.441 98.453C596.851 98.453 600.221 99.0476 603.551 100.237C606.96 101.426 610.013 103.289 612.708 105.827C615.483 108.285 617.664 111.456 619.25 115.341C620.915 119.226 621.747 123.825 621.747 129.137C621.747 134.449 620.915 139.048 619.25 142.933C617.664 146.818 615.483 150.029 612.708 152.567C610.013 155.025 606.96 156.848 603.551 158.037C600.221 159.227 596.851 159.821 593.441 159.821ZM593.441 151.021C596.296 151.021 599.071 150.267 601.767 148.761C604.462 147.175 606.682 144.796 608.427 141.625C610.171 138.374 611.043 134.212 611.043 129.137C611.043 124.063 610.171 119.94 608.427 116.768C606.682 113.518 604.462 111.139 601.767 109.632C599.071 108.047 596.296 107.254 593.441 107.254C590.666 107.254 587.891 108.047 585.116 109.632C582.42 111.139 580.2 113.518 578.456 116.768C576.712 119.94 575.84 124.063 575.84 129.137C575.84 134.212 576.712 138.374 578.456 141.625C580.2 144.796 582.42 147.175 585.116 148.761C587.891 150.267 590.666 151.021 593.441 151.021Z" fill="#8C8C8C"/>
<path d="M42.0543 53.1918C51.0068 53.1918 58.265 60.4492 58.2652 69.4017V113.17H25.8443V69.4017C25.8445 60.4493 33.1018 53.1919 42.0543 53.1918Z" fill="#579AFF"/>
<path d="M58.2652 146.131H58.2545C57.9695 154.833 50.8262 161.801 42.0543 161.801C33.2825 161.801 26.139 154.833 25.8541 146.131H25.8443V132.082H58.2652V146.131Z" fill="#1E286E"/>
<path d="M58.2652 132.083H58.2359C57.7418 136.904 50.6865 140.727 42.0543 140.727C33.4222 140.727 26.3677 136.904 25.8736 132.083H25.8443V96.4194C25.8445 101.492 33.1018 105.605 42.0543 105.605C50.8668 105.605 58.037 101.62 58.2593 96.6567L58.2652 96.4194V132.083Z" fill="#4E66ED"/>
<path d="M112.3 178.551C103.347 178.551 96.0888 171.294 96.0886 162.341L96.0886 99.6606L128.51 99.6606L128.51 162.341C128.509 171.294 121.252 178.551 112.3 178.551Z" fill="url(#paint0_linear_4_293)"/>
<rect x="50.7001" y="88.3137" width="7.5648" height="14.5893" fill="#579AFF"/>
<path d="M112.3 69.9419C121.072 69.9422 128.215 76.9102 128.5 85.6128H128.51V115.872C128.51 110.798 121.252 106.685 112.299 106.685C103.346 106.685 96.0889 110.798 96.0889 115.872V85.6128H96.0997C96.3844 76.91 103.528 69.9419 112.3 69.9419Z" fill="#579AFF"/>
<rect x="96.0889" y="109.322" width="4.6203" height="7.72079" fill="#4E66ED"/>
<path d="M53.4694 102.942L103.655 72.4373L100.832 109.408L54.2397 137.597L53.4694 102.942Z" fill="#579AFF"/>
<path d="M96.0885 112.277L54.2399 137.597L53.4694 102.941L96.0885 77.0359V112.277Z" fill="#4E66ED"/>
<defs>
<linearGradient id="paint0_linear_4_293" x1="106.026" y1="112.533" x2="112.299" y2="178.551" gradientUnits="userSpaceOnUse">
<stop stop-color="#4E66ED"/>
<stop offset="1" stop-color="#4861ED"/>
</linearGradient>
</defs>
</svg>
