<?xml version="1.0" standalone="no"?><!DOCTYPE svg PUBLIC "-//W3C//DTD SVG 1.1//EN" "http://www.w3.org/Graphics/SVG/1.1/DTD/svg11.dtd"><svg t="1746418874290" class="icon" viewBox="0 0 1024 1024" version="1.1" xmlns="http://www.w3.org/2000/svg" p-id="2357" xmlns:xlink="http://www.w3.org/1999/xlink" width="14" height="14"><path d="M703.73181 356.59581c-17.798095 2.121143-35.181714 5.607619-52.028953 10.410666a195.047619 195.047619 0 1 0-193.097143 144.944762 336.944762 336.944762 0 0 0-35.230476 75.093333C226.084571 605.696 67.267048 761.758476 48.518095 960.365714L0 955.830857c19.553524-207.433143 175.616-373.223619 375.661714-411.233524A243.907048 243.907048 0 0 1 219.331048 316.952381c0-134.656 109.153524-243.809524 243.809523-243.809524 134.631619 0 243.809524 109.153524 243.809524 243.809524 0 13.507048-1.097143 26.745905-3.218285 39.643429z m102.692571 583.19238c-8.508952-9.362286-35.498667-33.718857-57.58781-33.718857-21.942857 0-49.347048 24.502857-57.222095 33.084953a35.254857 35.254857 0 0 1-38.887619 8.192l-67.85219-37.985524c-12.897524-9.045333-17.554286-25.84381-11.483429-39.545905 0.048762-0.097524 6.192762-14.311619 6.192762-27.306667a71.387429 71.387429 0 0 0-71.192381-71.387428h-2.364952c-11.702857 0-20.845714-10.020571-23.771429-25.526857-0.24381-1.243429-5.729524-30.646857-5.729524-53.833143 0-23.161905 5.510095-52.589714 5.729524-53.808762 2.974476-15.701333 12.312381-25.795048 23.771429-25.526857h2.364952c39.253333 0 71.192381-32.036571 71.192381-71.41181 0-12.970667-6.144-27.184762-6.217143-27.331047a32.304762 32.304762 0 0 1 10.922667-39.009524l71.558095-39.545905a35.913143 35.913143 0 0 1 39.497143 7.728762c8.387048 8.825905 34.889143 31.744 56.344381 31.744 21.26019 0 47.616-22.479238 55.978667-31.134476a35.913143 35.913143 0 0 1 38.790095-7.753143l69.168762 38.473143c12.921905 9.020952 17.578667 25.84381 11.53219 39.497143-0.048762 0.121905-6.192762 14.360381-6.192762 27.331047a71.387429 71.387429 0 0 0 71.192381 71.41181h2.364953c11.410286-0.24381 20.796952 9.801143 23.747047 25.526857 0.24381 1.219048 5.729524 30.646857 5.729524 53.808762s-5.485714 52.589714-5.729524 53.833143c-2.974476 15.701333-12.336762 25.746286-23.747047 25.526857h-2.389334a71.387429 71.387429 0 0 0-71.192381 71.387428c0 12.970667 6.168381 27.209143 6.217143 27.355429 6.046476 13.653333 1.365333 30.45181-10.873905 39.009524l-70.290285 39.082667a35.254857 35.254857 0 0 1-39.545905-8.143239z m23.210667-26.477714a4.33981 4.33981 0 0 0 2.048 0.536381h0.097523l63.000381-34.937905c-1.511619-3.535238-8.46019-20.74819-8.46019-38.692571a100.522667 100.522667 0 0 1 94.963809-100.400762c0.731429-4.217905 4.87619-27.91619 4.876191-45.689905 0-17.798095-4.144762-41.447619-4.876191-45.689904a100.522667 100.522667 0 0 1-94.963809-100.400762c0-17.968762 6.972952-35.181714 8.484571-38.716953l-62.000762-34.547809h-0.243809a4.949333 4.949333 0 0 0-2.389333 0.609524c-1.048381 1.072762-10.020571 10.215619-22.918096 19.309714-19.114667 13.482667-37.180952 20.333714-53.711238 20.333714-16.700952 0-34.913524-6.972952-54.125714-20.723809a174.957714 174.957714 0 0 1-23.064381-19.69981 4.949333 4.949333 0 0 0-2.608762-0.609524L609.52381 509.318095c1.536 3.608381 8.46019 20.772571 8.46019 38.692572a100.522667 100.522667 0 0 1-94.96381 100.400762c-0.731429 4.217905-4.87619 27.91619-4.87619 45.689904 0 17.773714 4.120381 41.447619 4.87619 45.689905a100.522667 100.522667 0 0 1 94.96381 100.400762c0 17.993143-6.997333 35.254857-8.484571 38.741333l60.781714 34.084572h0.121905c0.902095 0 1.706667-0.316952 2.023619-0.512 1.145905-1.219048 10.24-10.873905 23.30819-20.48 19.480381-14.336 37.985524-21.601524 55.02781-21.601524 17.212952 0 35.84 7.41181 55.466666 22.016 13.165714 9.776762 22.25981 19.602286 23.405715 20.845714z m-80.579048-126.805333a95.061333 95.061333 0 0 1-94.768762-95.085714c0-52.443429 42.520381-95.085714 94.768762-95.085715a95.061333 95.061333 0 0 1 94.817524 95.085715c0 52.419048-42.544762 95.085714-94.817524 95.085714z m0-157.842286a62.70781 62.70781 0 0 0-62.537143 62.756572c0 34.596571 28.038095 62.73219 62.537143 62.73219a62.73219 62.73219 0 0 0 62.561524-62.73219 62.73219 62.73219 0 0 0-62.561524-62.756572z" fill="#ffffff" p-id="2358"></path></svg>